<svg xmlns="http://www.w3.org/2000/svg" width="16" height="14" viewBox="0 0 16 14">
    <defs>
        <style>
            .cls-1{fill:#fdfdfd}
        </style>
    </defs>
    <path id="bars-solid" d="M.571 62.571h14.858A.571.571 0 0 0 16 62v-1.429a.571.571 0 0 0-.571-.571H.571a.571.571 0 0 0-.571.571V62a.571.571 0 0 0 .571.571zm0 5.714h14.858a.571.571 0 0 0 .571-.571v-1.428a.571.571 0 0 0-.571-.571H.571a.571.571 0 0 0-.571.571v1.429a.571.571 0 0 0 .571.571zm0 5.715h14.858a.571.571 0 0 0 .571-.571V72a.571.571 0 0 0-.571-.571H.571A.571.571 0 0 0 0 72v1.429A.571.571 0 0 0 .571 74z" class="cls-1" transform="translate(0 -60)"/>
</svg>
