<svg xmlns="http://www.w3.org/2000/svg" width="16" height="15.996" viewBox="0 0 16 15.996">
    <defs>
        <style>
            .cls-1{fill:#fdfdfd}
        </style>
    </defs>
    <path id="instagram-brands" d="M7.927 35.722a4.1 4.1 0 1 0 4.1 4.1 4.095 4.095 0 0 0-4.1-4.1zm0 6.768a2.666 2.666 0 1 1 2.666-2.666 2.671 2.671 0 0 1-2.666 2.666zm5.226-6.935a.957.957 0 1 1-.953-.955.954.954 0 0 1 .952.954zm2.716.971a4.734 4.734 0 0 0-1.292-3.352 4.765 4.765 0 0 0-3.352-1.292c-1.321-.075-5.279-.075-6.6 0a4.758 4.758 0 0 0-3.352 1.288 4.75 4.75 0 0 0-1.292 3.351c-.075 1.321-.075 5.279 0 6.6a4.734 4.734 0 0 0 1.292 3.352 4.771 4.771 0 0 0 3.352 1.292c1.321.075 5.279.075 6.6 0a4.734 4.734 0 0 0 3.352-1.292 4.765 4.765 0 0 0 1.292-3.352c.075-1.321.075-5.275 0-6.596zm-1.706 8.013a2.7 2.7 0 0 1-1.521 1.521c-1.053.418-3.552.321-4.715.321s-3.666.093-4.715-.321a2.7 2.7 0 0 1-1.521-1.521c-.418-1.053-.321-3.552-.321-4.715s-.093-3.666.321-4.715a2.7 2.7 0 0 1 1.521-1.521c1.053-.418 3.552-.321 4.715-.321s3.666-.093 4.715.321a2.7 2.7 0 0 1 1.521 1.521c.418 1.053.321 3.552.321 4.715s.096 3.665-.321 4.714z" class="cls-1" transform="translate(.075 -31.825)"/>
</svg>
