<svg xmlns="http://www.w3.org/2000/svg" width="16" height="16" viewBox="0 0 16 16">
    <defs>
        <style>
            .cls-1{fill:#fdfdfd}
        </style>
    </defs>
    <path id="linkedin-brands" d="M14.857 32H1.139A1.148 1.148 0 0 0 0 33.154v13.692A1.148 1.148 0 0 0 1.139 48h13.718A1.151 1.151 0 0 0 16 46.846V33.154A1.151 1.151 0 0 0 14.857 32zM4.836 45.714H2.464v-7.635h2.375v7.636zM3.65 37.036a1.375 1.375 0 1 1 1.375-1.375 1.376 1.376 0 0 1-1.375 1.375zm10.075 8.679h-2.371V42c0-.886-.018-2.025-1.232-2.025-1.236 0-1.425.964-1.425 1.961v3.779H6.325v-7.636H8.6v1.043h.032a2.5 2.5 0 0 1 2.246-1.232c2.4 0 2.846 1.582 2.846 3.639z" class="cls-1" transform="translate(0 -32)"/>
</svg>
