<svg xmlns="http://www.w3.org/2000/svg" width="10" height="10" viewBox="0 0 10 10">
    <defs>
        <style>
            .cls-1{fill:#bebebe}
        </style>
    </defs>
    <path id="music-solid" d="M10 .616a.625.625 0 0 0-.812-.6l-6.251 1.85a.625.625 0 0 0-.437.6v5.102a2.7 2.7 0 0 0-.625-.077C.839 7.491 0 8.051 0 8.741s.839 1.25 1.875 1.25 1.875-.56 1.875-1.25V4.177l5-1.465v3.606a2.7 2.7 0 0 0-.625-.077c-1.036 0-1.875.56-1.875 1.25s.839 1.25 1.875 1.25S10 8.181 10 7.491V.616z" class="cls-1" transform="translate(0 .01)"/>
</svg>
