<svg xmlns="http://www.w3.org/2000/svg" width="16" height="11.25" viewBox="0 0 16 11.25">
    <defs>
        <style>
            .cls-1{fill:#fdfdfd}
        </style>
    </defs>
    <path id="youtube-brands" d="M30.6 65.76a2.01 2.01 0 0 0-1.415-1.424A47.51 47.51 0 0 0 22.933 64a47.51 47.51 0 0 0-6.251.337 2.01 2.01 0 0 0-1.415 1.424 22.636 22.636 0 0 0 0 7.752 1.98 1.98 0 0 0 1.415 1.4 47.511 47.511 0 0 0 6.251.337 47.512 47.512 0 0 0 6.251-.336 1.98 1.98 0 0 0 1.415-1.4 22.636 22.636 0 0 0 0-7.752zm-9.3 6.255v-4.758l4.182 2.379z" class="cls-1" transform="translate(-14.933 -64)"/>
</svg>
